HIERARCHY
ROOT Hips
{
 OFFSET 0.000000 0.000000 0.000000
 CHANNELS 6 Xposition Yposition Zposition Yrotation Xrotation Zrotation
 JOINT Chest
 {
  OFFSET 0.000000 13.173100 -0.061900
  CHANNELS 3 Yrotation Xrotation Zrotation
  JOINT Chest2
  {
   OFFSET 0.000000 8.040800 0.126200
   CHANNELS 3 Yrotation Xrotation Zrotation
   JOINT Chest3
   {
    OFFSET 0.000000 7.994400 0.000000
    CHANNELS 3 Yrotation Xrotation Zrotation
    JOINT Chest4
    {
     OFFSET 0.000000 7.986200 0.000000
     CHANNELS 3 Yrotation Xrotation Zrotation
     JOINT Neck
     {
      OFFSET 0.000000 12.259400 0.000000
      CHANNELS 3 Yrotation Xrotation Zrotation
      JOINT Head
      {
       OFFSET 0.000000 7.518700 0.267100
       CHANNELS 3 Yrotation Xrotation Zrotation
       End Site
       {
        OFFSET 0.000000 13.617700 0.141000
       }
      }
     }
     JOINT RightCollar
     {
      OFFSET -2.983800 8.314300 0.000000
      CHANNELS 3 Yrotation Xrotation Zrotation
      JOINT RightShoulder
      {
       OFFSET -16.133400 0.000000 0.000000
       CHANNELS 3 Yrotation Xrotation Zrotation
       JOINT RightElbow
       {
        OFFSET 0.000000 -29.822100 0.000000
        CHANNELS 3 Yrotation Xrotation Zrotation
        JOINT RightWrist
        {
         OFFSET 0.000000 -24.437700 0.010900
         CHANNELS 3 Yrotation Xrotation Zrotation
         End Site
         {
          OFFSET 0.000000 -18.312300 0.000000
         }
        }
       }
      }
     }
     JOINT LeftCollar
     {
      OFFSET 2.983800 8.314300 0.000000
      CHANNELS 3 Yrotation Xrotation Zrotation
      JOINT LeftShoulder
      {
       OFFSET 16.133400 0.000000 0.000000
       CHANNELS 3 Yrotation Xrotation Zrotation
       JOINT LeftElbow
       {
        OFFSET 0.000000 -29.822100 0.000000
        CHANNELS 3 Yrotation Xrotation Zrotation
        JOINT LeftWrist
        {
         OFFSET 0.000000 -24.437700 0.010900
         CHANNELS 3 Yrotation Xrotation Zrotation
         End Site
         {
          OFFSET 0.000000 -18.312300 0.000000
         }
        }
       }
      }
     }
    }
   }
  }
 }
 JOINT RightHip
 {
  OFFSET -11.206700 0.306200 0.030900
  CHANNELS 3 Yrotation Xrotation Zrotation
  JOINT RightKnee
  {
   OFFSET 0.000000 -57.334900 0.009400
   CHANNELS 3 Yrotation Xrotation Zrotation
   JOINT RightAnkle
   {
    OFFSET 0.000000 -43.376200 0.036600
    CHANNELS 3 Yrotation Xrotation Zrotation
    JOINT RightToe
    {
     OFFSET 0.000000 -10.035500 18.363100
     CHANNELS 3 Yrotation Xrotation Zrotation
     End Site
     {
      OFFSET 0.000000 -1.618500 7.239000
     }
    }
   }
  }
 }
 JOINT LeftHip
 {
  OFFSET 11.206700 0.306200 0.030900
  CHANNELS 3 Yrotation Xrotation Zrotation
  JOINT LeftKnee
  {
   OFFSET 0.000000 -57.334900 0.009400
   CHANNELS 3 Yrotation Xrotation Zrotation
   JOINT LeftAnkle
   {
    OFFSET 0.000000 -43.376200 0.036600
    CHANNELS 3 Yrotation Xrotation Zrotation
    JOINT LeftToe
    {
     OFFSET 0.000000 -10.035500 18.363100
     CHANNELS 3 Yrotation Xrotation Zrotation
     End Site
     {
      OFFSET 0.000000 -1.618500 7.239000
     }
    }
   }
  }
 }
}
MOTION
Frames: 15
Frame Time: 0.008333
0.000000 110.232800 0.000000 0.000000 -5.767877 0.000000 0.000000 11.653817 0.000000 0.000000 -5.885947 0.000000 0.000000 -0.000000 0.000000 0.000000 -0.000000 0.000000 0.000000 12.528835 0.000000 0.000000 0.711642 0.000000 0.000000 -0.000000 0.000000 0.000000 0.000000 -90.000000 0.000000 -2.309062 0.000000 0.000000 2.309062 0.000000 0.000000 -0.000000 0.000000 0.000000 -0.000000 90.000000 0.000000 -2.309062 0.000000 0.000000 2.309062 0.000000 0.000000 8.520406 0.000000 0.000000 1.905762 0.000000 -0.000000 -4.658285 0.000000 0.000000 -0.000000 0.000000 0.000000 8.520406 0.000000 0.000000 1.905762 0.000000 -0.000000 -4.658285 0.000000 0.000000 -0.000000 0.000000
-95.809237 64.369638 93.820551 173.347400 -38.220460 -3.292493 3.377095 23.384262 2.293692 0.430637 3.486229 0.402687 0.699263 5.672097 0.665111 2.815881 19.590360 2.693202 2.510820 16.629964 0.515913 4.476264 -4.895997 0.079752 -5.876803 0.921075 -1.624977 -1.808446 -5.077394 2.575885 178.361492 -79.578014 -167.218230 2.189082 -5.766472 2.038230 -6.481619 1.968868 -0.178992 4.455548 -13.925260 3.527131 -173.678904 -55.835429 164.540411 -3.222196 -23.504996 18.261022 -5.816085 -42.623830 4.849376 -117.054218 87.281304 -112.688286 -1.762737 -9.722794 -3.286097 0.277172 -0.571048 0.140786 -0.611043 -39.536829 5.653657 70.387528 84.370921 59.900176 -5.720513 -13.654130 9.971315 0.281575 1.071788 0.147507
-95.808497 64.369121 93.820455 173.342500 -38.222057 -3.284031 3.373559 23.403845 2.286101 0.434210 3.490312 0.403030 0.696806 5.682187 0.665508 2.819748 19.568521 2.689792 2.521635 16.689987 0.520873 4.502371 -4.865469 0.072693 -5.893441 0.982532 -1.621662 -1.791930 -5.118826 2.559493 178.437655 -79.588611 -167.290963 2.188535 -5.732275 2.063317 -6.498982 1.979635 -0.187023 4.344218 -13.998375 3.630598 -173.953256 -55.551430 164.671377 -3.186785 -23.562152 18.196275 -5.833859 -42.623048 4.856247 -117.127729 87.281312 -112.771247 -1.762054 -9.725295 -3.297210 0.280362 -0.570590 0.143243 -0.608746 -39.535784 5.643801 70.407830 84.365183 59.924108 -5.719949 -13.649540 9.971432 0.289205 1.068384 0.143691
-95.806197 64.368771 93.820361 173.335592 -38.225502 -3.280643 3.374902 23.420227 2.284926 0.433212 3.501510 0.404665 0.698402 5.681961 0.664394 2.818811 19.591591 2.691110 2.529732 16.696541 0.518666 4.516877 -4.845048 0.066084 -5.888955 0.945922 -1.621528 -1.779766 -5.074177 2.535995 178.540333 -79.565410 -167.401886 2.187106 -5.739823 2.065948 -6.498065 1.939501 -0.190264 4.230096 -14.060080 3.730769 -174.223379 -55.294328 164.799714 -3.149826 -23.618864 18.143380 -5.837994 -42.620098 4.860882 -117.154636 87.279221 -112.796409 -1.757493 -9.727700 -3.301518 0.280265 -0.569414 0.141991 -0.608526 -39.531792 5.642805 70.412909 84.364020 59.929337 -5.706612 -13.650920 9.971187 0.286946 1.067495 0.141685
-95.803562 64.368326 93.820400 173.330403 -38.229168 -3.280293 3.378886 23.427821 2.287268 0.428576 3.519999 0.404179 0.703410 5.667064 0.664662 2.812704 19.662197 2.699947 2.537155 16.644170 0.505452 4.523126 -4.802169 0.064544 -5.885561 0.905576 -1.621925 -1.769236 -5.099919 2.528506 178.555559 -79.562942 -167.420705 2.178126 -5.703395 2.074796 -6.507158 1.886320 -0.204873 4.133890 -14.141263 3.838214 -174.487916 -55.059313 164.926760 -3.112426 -23.667397 18.106500 -5.839325 -42.617234 4.867065 -117.168269 87.275944 -112.808566 -1.756349 -9.728384 -3.294763 0.280053 -0.569515 0.134734 -0.611865 -39.528017 5.643965 70.425317 84.362949 59.944649 -5.697003 -13.653074 9.968856 0.285042 1.067422 0.137481
-95.801319 64.367200 93.821207 173.322359 -38.229507 -3.278140 3.380433 23.441990 2.289553 0.425803 3.535427 0.404054 0.707541 5.663494 0.665611 2.813252 19.666750 2.699574 2.539635 16.637823 0.501124 4.520650 -4.760683 0.060800 -5.890915 0.909485 -1.622059 -1.756377 -5.121220 2.521735 178.537735 -79.590288 -167.411650 2.169746 -5.669725 2.055757 -6.536414 1.903850 -0.221317 4.054423 -14.243397 3.943295 -174.744805 -54.842289 165.051540 -3.078581 -23.701611 18.088577 -5.849767 -42.618761 4.874029 -117.215186 87.279819 -112.850953 -1.750965 -9.725026 -3.307673 0.279688 -0.572248 0.136275 -0.612780 -39.529026 5.645695 70.443617 84.361597 59.967766 -5.696081 -13.651301 9.966450 0.289986 1.066489 0.136483
-95.799493 64.366946 93.820905 173.322344 -38.236677 -3.280554 3.375299 23.463261 2.288740 0.431584 3.524981 0.405010 0.704576 5.680977 0.666468 2.816724 19.669123 2.701212 2.536542 16.657160 0.499554 4.521298 -4.770861 0.052549 -5.897576 0.914465 -1.622939 -1.748632 -5.124077 2.512524 178.550593 -79.623297 -167.433275 2.167825 -5.695083 2.049613 -6.547256 1.900427 -0.229467 3.957563 -14.315776 4.041809 -175.005358 -54.646853 165.183531 -3.048384 -23.727593 18.093045 -5.866318 -42.609854 4.876795 -117.271881 87.277192 -112.895818 -1.747493 -9.728512 -3.332639 0.286687 -0.572106 0.142764 -0.616241 -39.522275 5.648127 70.454655 84.361603 59.981271 -5.697786 -13.649211 9.965059 0.290266 1.065716 0.138894
-95.798941 64.365806 93.821542 173.321535 -38.239333 -3.279778 3.373724 23.470220 2.287959 0.429703 3.532340 0.405640 0.705201 5.685698 0.667130 2.823227 19.671528 2.701361 2.529354 16.709253 0.494139 4.521186 -4.809987 0.046617 -5.906497 0.923554 -1.619786 -1.751106 -5.106237 2.499555 178.620960 -79.597055 -167.499250 2.164770 -5.681460 2.038094 -6.559616 1.897662 -0.237809 3.858175 -14.383030 4.141797 -175.284959 -54.476577 165.336774 -3.014708 -23.752899 18.118754 -5.877860 -42.605976 4.878785 -117.341106 87.282705 -112.963969 -1.747347 -9.736297 -3.332375 0.285365 -0.566074 0.135777 -0.619357 -39.520719 5.645379 70.483712 84.356796 60.011182 -5.697513 -13.646979 9.962895 0.290114 1.065476 0.140837
-95.799404 64.364201 93.822696 173.318283 -38.240235 -3.275877 3.374244 23.480967 2.285810 0.431684 3.529648 0.405309 0.707337 5.701395 0.669641 2.824625 19.665313 2.701875 2.523576 16.726427 0.487712 4.515535 -4.778270 0.038392 -5.920976 0.928943 -1.621126 -1.742270 -5.107112 2.498132 178.628259 -79.609825 -167.503741 2.166765 -5.692863 2.020939 -6.572505 1.892817 -0.247333 3.760090 -14.445239 4.241364 -175.591464 -54.329160 165.518722 -2.977250 -23.780567 18.160300 -5.891244 -42.604774 4.880323 -117.436761 87.288431 -113.065107 -1.738909 -9.742791 -3.330402 0.276254 -0.560389 0.128520 -0.620670 -39.521825 5.638079 70.527234 84.347349 60.056516 -5.694895 -13.643146 9.959909 0.273961 1.064698 0.143286
-95.799977 64.362119 93.824598 173.314907 -38.238734 -3.274359 3.374692 23.484719 2.285181 0.434155 3.532307 0.406783 0.706374 5.704295 0.669375 2.827574 19.669840 2.703905 2.516148 16.743684 0.479982 4.511455 -4.745103 0.030007 -5.934807 0.931816 -1.621693 -1.727635 -5.103645 2.495556 178.627702 -79.620020 -167.504920 2.170538 -5.717788 2.013223 -6.583119 1.888638 -0.257118 3.665497 -14.505915 4.338304 -175.916535 -54.200421 165.722769 -2.936641 -23.810706 18.215280 -5.891885 -42.607597 4.878254 -117.458418 87.288491 -113.077771 -1.738702 -9.747024 -3.335978 0.278715 -0.558175 0.133482 -0.619754 -39.524265 5.637220 70.533293 84.345632 60.065599 -5.705427 -13.644320 9.960576 0.279766 1.068721 0.142740
-95.800605 64.359708 93.827073 173.310705 -38.235668 -3.274864 3.377115 23.487062 2.287664 0.434024 3.534067 0.407145 0.707681 5.702108 0.668826 2.828935 19.680326 2.706067 2.506417 16.759324 0.471451 4.486379 -4.664174 0.008864 -5.944881 0.934638 -1.626145 -1.717034 -5.099128 2.496443 178.630981 -79.632421 -167.509410 2.167665 -5.724935 1.999334 -6.589548 1.882199 -0.264421 3.575067 -14.562319 4.428402 -176.243727 -54.086072 165.933859 -2.893522 -23.841222 18.284999 -5.903838 -42.612021 4.876280 -117.464781 87.287360 -113.066846 -1.726890 -9.746600 -3.361934 0.284454 -0.560180 0.139450 -0.618666 -39.528899 5.637110 70.543923 84.343371 60.079830 -5.706527 -13.647684 9.957093 0.277053 1.073435 0.144877
-95.801471 64.357829 93.828984 173.307435 -38.236699 -3.276933 3.381318 23.492538 2.293528 0.431658 3.536557 0.404363 0.709455 5.700064 0.669422 2.830336 19.687907 2.708880 2.494469 16.776646 0.463232 4.491429 -4.678693 0.005046 -5.982179 0.955153 -1.629607 -1.686450 -5.111007 2.496183 178.644783 -79.637179 -167.526077 2.167541 -5.719504 1.992452 -6.591518 1.872475 -0.267904 3.489197 -14.608281 4.509228 -176.561133 -53.984869 166.141339 -2.853233 -23.873717 18.369608 -5.921866 -42.609717 4.880708 -117.518234 87.294625 -113.115530 -1.718128 -9.750641 -3.375182 0.281897 -0.556735 0.137438 -0.617257 -39.529910 5.634808 70.551327 84.340815 60.096113 -5.703876 -13.650520 9.948114 0.282547 1.076594 0.149162
-95.803661 64.355699 93.831061 173.302945 -38.236529 -3.274620 3.385011 23.497145 2.293783 0.432721 3.541027 0.408429 0.709144 5.703628 0.669810 2.834003 19.691387 2.705911 2.478915 16.787534 0.456151 4.469104 -4.653647 -0.005752 -6.009053 0.955810 -1.623941 -1.674774 -5.106267 2.489922 178.671572 -79.647821 -167.551435 2.166743 -5.732108 1.998101 -6.596385 1.866933 -0.277461 3.402647 -14.657588 4.596148 -176.861473 -53.895667 166.341551 -2.819399 -23.906512 18.465704 -5.931633 -42.610189 4.880065 -117.568554 87.299278 -113.162680 -1.715083 -9.756000 -3.373074 0.284350 -0.552360 0.125869 -0.610167 -39.532356 5.628621 70.560257 84.338888 60.108994 -5.701331 -13.650536 9.947687 0.287088 1.076576 0.150380
-95.805428 64.354444 93.832206 173.290129 -38.242543 -3.270075 3.399061 23.507203 2.297617 0.428411 3.543530 0.408332 0.710445 5.707968 0.670446 2.848699 19.696691 2.706283 2.460518 16.792976 0.451151 4.440177 -4.628486 -0.010215 -6.031352 0.947864 -1.616507 -1.673182 -5.091345 2.483870 178.708674 -79.628114 -167.581629 2.163961 -5.713399 1.990682 -6.614359 1.873901 -0.286325 3.328056 -14.715416 4.683059 -177.147960 -53.814253 166.537116 -2.790918 -23.932129 18.562741 -5.938965 -42.605322 4.877449 -117.690349 87.309413 -113.280336 -1.695941 -9.754393 -3.379857 0.267804 -0.553852 0.120487 -0.600145 -39.527541 5.629361 70.598687 84.337203 60.147186 -5.700609 -13.653155 9.949527 0.280773 1.075254 0.151332
-95.806425 64.353593 93.833060 173.276397 -38.250751 -3.269265 3.416632 23.516122 2.307278 0.433097 3.547204 0.407219 0.718042 5.714895 0.670894 2.847142 19.690515 2.707862 2.447657 16.796008 0.451834 4.401852 -4.598866 -0.013294 -6.052720 0.952258 -1.609180 -1.666695 -5.089962 2.479434 178.712064 -79.630215 -167.591623 2.164010 -5.717227 1.987731 -6.633641 1.886918 -0.291261 3.271118 -14.764458 4.763288 -177.428174 -53.738461 166.731891 -2.764797 -23.950392 18.652115 -5.937927 -42.597792 4.882629 -117.730931 87.317317 -113.312423 -1.695154 -9.753628 -3.390446 0.269477 -0.553871 0.124991 -0.592764 -39.520253 5.637219 70.651440 84.337287 60.195237 -5.695719 -13.657882 9.958240 0.273373 1.073504 0.147867
